<svg width="21" height="21" viewBox="0 0 21 21" fill="none" xmlns="http://www.w3.org/2000/svg">
<path d="M14.8748 1.74984C16.0342 1.75331 17.1451 2.21539 17.9648 3.03517C18.7846 3.85495 19.2467 4.96582 19.2502 6.12516V14.8748C19.2467 16.0342 18.7846 17.1451 17.9648 17.9648C17.1451 18.7846 16.0342 19.2467 14.8748 19.2502H6.12516C4.96582 19.2467 3.85495 18.7846 3.03517 17.9648C2.21539 17.1451 1.75331 16.0342 1.74984 14.8748V6.12516C1.75331 4.96582 2.21539 3.85495 3.03517 3.03517C3.85495 2.21539 4.96582 1.75331 6.12516 1.74984H14.8748ZM14.8748 0H6.12516C2.75625 0 0 2.75625 0 6.12516V14.8748C0 18.2438 2.75625 21 6.12516 21H14.8748C18.2438 21 21 18.2438 21 14.8748V6.12516C21 2.75625 18.2438 0 14.8748 0Z" fill="black"/>
<path d="M16.1875 6.125C15.9279 6.125 15.6742 6.04802 15.4583 5.9038C15.2425 5.75959 15.0742 5.5546 14.9749 5.31477C14.8756 5.07494 14.8496 4.81104 14.9002 4.55644C14.9509 4.30184 15.0759 4.06798 15.2594 3.88442C15.443 3.70087 15.6768 3.57586 15.9314 3.52522C16.186 3.47458 16.4499 3.50057 16.6898 3.59991C16.9296 3.69925 17.1346 3.86748 17.2788 4.08331C17.423 4.29915 17.5 4.55291 17.5 4.8125C17.5004 4.98496 17.4667 5.1558 17.4008 5.31521C17.335 5.47462 17.2384 5.61945 17.1164 5.74141C16.9945 5.86336 16.8496 5.96002 16.6902 6.02585C16.5308 6.09168 16.36 6.12537 16.1875 6.125Z" fill="black"/>
<path d="M10.5 6.99984C11.1923 6.99984 11.869 7.20512 12.4446 7.58973C13.0202 7.97433 13.4688 8.52098 13.7337 9.16055C13.9986 9.80012 14.068 10.5039 13.9329 11.1828C13.7978 11.8618 13.4645 12.4855 12.975 12.975C12.4855 13.4645 11.8618 13.7978 11.1828 13.9329C10.5039 14.068 9.80012 13.9986 9.16055 13.7337C8.52098 13.4688 7.97433 13.0202 7.58973 12.4446C7.20513 11.869 6.99985 11.1923 6.99985 10.5C7.00084 9.57201 7.36992 8.6823 8.02611 8.02611C8.68231 7.36992 9.57201 7.00084 10.5 6.99984ZM10.5 5.25C9.46165 5.25 8.44662 5.55791 7.58326 6.13478C6.7199 6.71166 6.04699 7.5316 5.64963 8.49091C5.25227 9.45022 5.14831 10.5058 5.35088 11.5242C5.55345 12.5426 6.05347 13.4781 6.78769 14.2123C7.52192 14.9465 8.45738 15.4466 9.47578 15.6491C10.4942 15.8517 11.5498 15.7477 12.5091 15.3504C13.4684 14.953 14.2883 14.2801 14.8652 13.4167C15.4421 12.5534 15.75 11.5384 15.75 10.5C15.75 9.10761 15.1969 7.77226 14.2123 6.78769C13.2277 5.80312 11.8924 5.25 10.5 5.25Z" fill="black"/>
</svg>
