<svg width="20" height="20" viewBox="0 0 20 20" fill="none" xmlns="http://www.w3.org/2000/svg">
<path d="M7 7.9834C7 8.11601 7.05268 8.24318 7.14645 8.33695C7.24021 8.43072 7.36739 8.4834 7.5 8.4834C7.63261 8.4834 7.75979 8.43072 7.85355 8.33695C7.94732 8.24318 8 8.11601 8 7.9834V6.9834C8 6.85079 7.94732 6.72361 7.85355 6.62984C7.75979 6.53608 7.63261 6.4834 7.5 6.4834C7.36739 6.4834 7.24021 6.53608 7.14645 6.62984C7.05268 6.72361 7 6.85079 7 6.9834V7.9834ZM7 7.9834C7 9.30948 7.52678 10.5813 8.46447 11.5189C9.40215 12.4566 10.6739 12.9834 12 12.9834M12 12.9834H13C13.1326 12.9834 13.2598 12.9307 13.3536 12.837C13.4473 12.7432 13.5 12.616 13.5 12.4834C13.5 12.3508 13.4473 12.2236 13.3536 12.1298C13.2598 12.0361 13.1326 11.9834 13 11.9834H12C11.8674 11.9834 11.7402 12.0361 11.6464 12.1298C11.5527 12.2236 11.5 12.3508 11.5 12.4834C11.5 12.616 11.5527 12.7432 11.6464 12.837C11.7402 12.9307 11.8674 12.9834 12 12.9834ZM1 18.9831L2.65 15.1831C1.38766 13.3912 0.822667 11.2002 1.06104 9.02123C1.29942 6.8423 2.32479 4.82526 3.94471 3.34864C5.56463 1.87203 7.66775 1.03734 9.85938 1.00122C12.051 0.965109 14.1805 1.73005 15.8482 3.1525C17.5159 4.57494 18.6071 6.5571 18.9172 8.72699C19.2272 10.8969 18.7347 13.1053 17.5321 14.9379C16.3295 16.7705 14.4994 18.1011 12.3854 18.6802C10.2713 19.2593 8.01863 19.047 6.05 18.0831L1 18.9831Z" stroke="black" stroke-width="2" stroke-linecap="round" stroke-linejoin="round"/>
</svg>
